<svg id="visual" viewBox="0 0 900 600" width="900" height="600" xmlns="http://www.w3.org/2000/svg" xmlns:xlink="http://www.w3.org/1999/xlink" version="1.1"><rect x="0" y="0" width="900" height="600" fill="#263238"></rect><path d="M0 388L21.5 392.5C43 397 86 406 128.8 407.2C171.7 408.3 214.3 401.7 257.2 401.8C300 402 343 409 385.8 417C428.7 425 471.3 434 514.2 434.2C557 434.3 600 425.7 642.8 415.3C685.7 405 728.3 393 771.2 398.3C814 403.7 857 426.3 878.5 437.7L900 449L900 601L878.5 601C857 601 814 601 771.2 601C728.3 601 685.7 601 642.8 601C600 601 557 601 514.2 601C471.3 601 428.7 601 385.8 601C343 601 300 601 257.2 601C214.3 601 171.7 601 128.8 601C86 601 43 601 21.5 601L0 601Z" fill="#d4f4dd"></path><path d="M0 432L21.5 429.8C43 427.7 86 423.3 128.8 428C171.7 432.7 214.3 446.3 257.2 455.3C300 464.3 343 468.7 385.8 468.8C428.7 469 471.3 465 514.2 468C557 471 600 481 642.8 478C685.7 475 728.3 459 771.2 452.5C814 446 857 449 878.5 450.5L900 452L900 601L878.5 601C857 601 814 601 771.2 601C728.3 601 685.7 601 642.8 601C600 601 557 601 514.2 601C471.3 601 428.7 601 385.8 601C343 601 300 601 257.2 601C214.3 601 171.7 601 128.8 601C86 601 43 601 21.5 601L0 601Z" fill="#beefcc"></path><path d="M0 520L21.5 513.8C43 507.7 86 495.3 128.8 492.7C171.7 490 214.3 497 257.2 503C300 509 343 514 385.8 508.7C428.7 503.3 471.3 487.7 514.2 483.7C557 479.7 600 487.3 642.8 494.3C685.7 501.3 728.3 507.7 771.2 506.2C814 504.7 857 495.3 878.5 490.7L900 486L900 601L878.5 601C857 601 814 601 771.2 601C728.3 601 685.7 601 642.8 601C600 601 557 601 514.2 601C471.3 601 428.7 601 385.8 601C343 601 300 601 257.2 601C214.3 601 171.7 601 128.8 601C86 601 43 601 21.5 601L0 601Z" fill="#a8e9ba"></path><path d="M0 533L21.5 531.7C43 530.3 86 527.7 128.8 529.2C171.7 530.7 214.3 536.3 257.2 533.8C300 531.3 343 520.7 385.8 517.8C428.7 515 471.3 520 514.2 528.5C557 537 600 549 642.8 554C685.7 559 728.3 557 771.2 557.8C814 558.7 857 562.3 878.5 564.2L900 566L900 601L878.5 601C857 601 814 601 771.2 601C728.3 601 685.7 601 642.8 601C600 601 557 601 514.2 601C471.3 601 428.7 601 385.8 601C343 601 300 601 257.2 601C214.3 601 171.7 601 128.8 601C86 601 43 601 21.5 601L0 601Z" fill="#92e3a9"></path></svg>